<svg xmlns="http://www.w3.org/2000/svg" viewBox="0 0 512 512">
  <rect width="512" height="512" rx="100" fill="#ffffff"/>
  <path d="M256 96c-88.4 0-160 71.6-160 160s71.6 160 160 160c29.6 0 57.3-8 81.3-22l45.5 45.5c12.5 12.5 32.8 12.5 45.3 0s12.5-32.8 0-45.3l-45.5-45.5C397.6 324.9 416 292.5 416 256c0-88.4-71.6-160-160-160zm0 64c53 0 96 43 96 96s-43 96-96 96-96-43-96-96 43-96 96-96z" fill="#0a0a0a"/>
  <ellipse cx="256" cy="256" rx="140" ry="60" fill="none" stroke="#dc2626" stroke-width="24" transform="rotate(-45 256 256)" opacity="0.9"/>
</svg>
